<svg width="450" height="450" viewBox="0 0 450 450" fill="none" xmlns="http://www.w3.org/2000/svg">
<g id="3">
<circle id="Mask" cx="225" cy="225" r="225" fill="#545BFE"/>
<mask id="mask0_0_10697" style="mask-type:luminance" maskUnits="userSpaceOnUse" x="0" y="0" width="450" height="450">
<circle id="Mask_2" cx="225" cy="225" r="225" fill="white"/>
</mask>
<g mask="url(#mask0_0_10697)">
<path id="Combined Shape" fill-rule="evenodd" clip-rule="evenodd" d="M-29 15C-35.6274 15 -41 20.3726 -41 27C-41 33.6274 -35.6274 39 -29 39H176C182.627 39 188 33.6274 188 27C188 20.3726 182.627 15 176 15H-29ZM1 75C1 68.3726 6.37259 63 13 63H182C188.627 63 194 68.3726 194 75C194 81.6274 188.627 87 182 87H13C6.37259 87 1 81.6274 1 75ZM-13 123C-13 116.373 -7.62742 111 -1 111H118C124.627 111 130 116.373 130 123C130 129.627 124.627 135 118 135H-1C-7.62742 135 -13 129.627 -13 123ZM14 183C7.37258 183 2 188.373 2 195C2 201.627 7.37258 207 14 207H49C55.6274 207 61 201.627 61 195C61 188.373 55.6274 183 49 183H14ZM91 219C91 212.373 96.3726 207 103 207H152C158.627 207 164 212.373 164 219C164 225.627 158.627 231 152 231H103C96.3726 231 91 225.627 91 219ZM103 255C96.3726 255 91 260.373 91 267C91 273.627 96.3726 279 103 279H205C211.627 279 217 273.627 217 267C217 260.373 211.627 255 205 255H103ZM127 363C127 356.373 132.373 351 139 351H168C174.627 351 180 356.373 180 363C180 369.627 174.627 375 168 375H139C132.373 375 127 369.627 127 363ZM115 303C108.373 303 103 308.373 103 315C103 321.627 108.373 327 115 327H199C205.627 327 211 321.627 211 315C211 308.373 205.627 303 199 303H115ZM86 171C86 164.373 91.3726 159 98 159C104.627 159 110 164.373 110 171C110 177.627 104.627 183 98 183C91.3726 183 86 177.627 86 171Z" fill="#4FCDF9"/>
<path id="Combined Shape_2" fill-rule="evenodd" clip-rule="evenodd" d="M386 39C379.373 39 374 44.3726 374 51C374 57.6274 379.373 63 386 63H410C416.627 63 422 57.6274 422 51C422 44.3726 416.627 39 410 39H386ZM449 63C442.373 63 437 68.3726 437 75C437 81.6274 442.373 87 449 87H660C666.627 87 672 81.6274 672 75C672 68.3726 666.627 63 660 63H449ZM323 99C323 92.3726 328.373 87 335 87H359C365.627 87 371 92.3726 371 99C371 105.627 365.627 111 359 111H335C328.373 111 323 105.627 323 99ZM334 135C327.373 135 322 140.373 322 147C322 153.627 327.373 159 334 159H390C396.627 159 402 153.627 402 147C402 140.373 396.627 135 390 135H334ZM448 135C441.373 135 436 140.373 436 147C436 153.627 441.373 159 448 159H462C468.627 159 474 153.627 474 147C474 140.373 468.627 135 462 135H448ZM483 123C483 116.373 488.373 111 495 111H669C675.627 111 681 116.373 681 123C681 129.627 675.627 135 669 135H495C488.373 135 483 129.627 483 123ZM382 99C382 92.3726 387.373 87 394 87H397C403.627 87 409 92.3726 409 99C409 105.627 403.627 111 397 111H394C387.373 111 382 105.627 382 99ZM480 303C473.373 303 468 308.373 468 315C468 321.627 473.373 327 480 327C486.627 327 492 321.627 492 315C492 308.373 486.627 303 480 303ZM296 195C296 188.373 301.373 183 308 183H481C487.627 183 493 188.373 493 195C493 201.627 487.627 207 481 207H308C301.373 207 296 201.627 296 195ZM342 231C335.373 231 330 236.373 330 243C330 249.627 335.373 255 342 255H471C477.627 255 483 249.627 483 243C483 236.373 477.627 231 471 231H342ZM378 291C378 284.373 383.373 279 390 279H454C460.627 279 466 284.373 466 291C466 297.627 460.627 303 454 303H390C383.373 303 378 297.627 378 291ZM394 327C387.373 327 382 332.373 382 339C382 345.627 387.373 351 394 351H430C436.627 351 442 345.627 442 339C442 332.373 436.627 327 430 327H394Z" fill="#4FCDF9"/>
<path id="Combined Shape_3" fill-rule="evenodd" clip-rule="evenodd" d="M196 -21C196 -27.6274 201.373 -33 208 -33H270C276.627 -33 282 -27.6274 282 -21C282 -14.3726 276.627 -9 270 -9H208C201.373 -9 196 -14.3726 196 -21ZM339 123C339 116.373 344.373 111 351 111H413C419.627 111 425 116.373 425 123C425 129.627 419.627 135 413 135H351C344.373 135 339 129.627 339 123ZM318 -33C311.373 -33 306 -27.6274 306 -21C306 -14.3726 311.373 -9 318 -9H474C480.627 -9 486 -14.3726 486 -21C486 -27.6274 480.627 -33 474 -33H318ZM279 75C279 68.3726 284.373 63 291 63H367C373.627 63 379 68.3726 379 75C379 81.6274 373.627 87 367 87H291C284.373 87 279 81.6274 279 75ZM175 15C168.373 15 163 20.3726 163 27C163 33.6274 168.373 39 175 39H432C438.627 39 444 33.6274 444 27C444 20.3726 438.627 15 432 15H175ZM403 75C403 68.3726 408.373 63 415 63H435C441.627 63 447 68.3726 447 75C447 81.6274 441.627 87 435 87H415C408.373 87 403 81.6274 403 75ZM223 63C216.373 63 211 68.3726 211 75C211 81.6274 216.373 87 223 87H243C249.627 87 255 81.6274 255 75C255 68.3726 249.627 63 243 63H223Z" fill="white"/>
<path id="Combined Shape_4" fill-rule="evenodd" clip-rule="evenodd" d="M95 279C88.3726 279 83 284.373 83 291C83 297.627 88.3726 303 95 303H213C219.627 303 225 297.627 225 291C225 284.373 219.627 279 213 279H95ZM81 375C74.3726 375 69 380.373 69 387C69 393.627 74.3726 399 81 399H157C163.627 399 169 393.627 169 387C169 380.373 163.627 375 157 375H81ZM5 339C5 332.373 10.3726 327 17 327H180C186.627 327 192 332.373 192 339C192 345.627 186.627 351 180 351H17C10.3726 351 5 345.627 5 339ZM228 327C221.373 327 216 332.373 216 339C216 345.627 221.373 351 228 351H248C254.627 351 260 345.627 260 339C260 332.373 254.627 327 248 327H228Z" fill="white"/>
<path id="Combined Shape Copy" fill-rule="evenodd" clip-rule="evenodd" d="M347 375C340.373 375 335 380.373 335 387C335 393.627 340.373 399 347 399H465C471.627 399 477 393.627 477 387C477 380.373 471.627 375 465 375H347ZM333 471C326.373 471 321 476.373 321 483C321 489.627 326.373 495 333 495H409C415.627 495 421 489.627 421 483C421 476.373 415.627 471 409 471H333ZM257 435C257 428.373 262.373 423 269 423H432C438.627 423 444 428.373 444 435C444 441.627 438.627 447 432 447H269C262.373 447 257 441.627 257 435ZM480 423C473.373 423 468 428.373 468 435C468 441.627 473.373 447 480 447H500C506.627 447 512 441.627 512 435C512 428.373 506.627 423 500 423H480Z" fill="white"/>
<rect id="Rectangle" opacity="0.0775757" x="225.484" y="-25" width="250.484" height="500" fill="black"/>
</g>
</g>
</svg>
